PathFileType	4	(X/Y/Z)	D:/ViconDB/Teaching_2017/Workshops/171025_A1_Demo01/Demo/171025_Guy_ROM_body_01.trc
DataRate	CameraRate	NumFrames	NumMarkers	Units	OrigDataRate	OrigDataStartFrame	OrigNumFrames
120.000000	120.000000	4	130	mm	120.000000	106	120
Frame#	Time	System			Vantage_5_2106396			Vantage_5_2106443			Vantage_5_2106435			Vantage_5_2106735			Vantage_5_2106428			Vantage_5_2106437			Vantage_5_2106434			Vantage_5_2106460			Vantage_5_2106228			Vantage_5_2106436			Vantage_5_2106467			Unlabeled_Markers			Labeling			Hips			Spine			Head			Head_End			LeftShoulder			LeftArm			LeftForeArm			LeftHand			LeftHandThumbEnd			LeftHandEnd			RightShoulder			RightArm			RightForeArm			RightHand			RightHandThumbEnd			RightHandEnd			LeftUpLeg			LeftLeg			LeftFoot			LeftToeBase			LeftToeEnd			RightUpLeg			RightLeg			RightFoot			RightToeBase			RightToeEnd			ARIEL			LFHD			RFHD			LBHD			RBHD			C7			T10			CLAV			STRN			LBSH			LFSH			LUPA			LELB			LIEL			LWRE			LOWR			LIWR			LOHAND			LIHAND			RBSH			RFSH			RUPA			RELB			RIEL			RWRE			ROWR			RIWR			ROHAND			RIHAND			LFWT			LMWT			LBWT			LHIP			LKNE			LKNI			LSHN			LANK			LHEL			LMT5			LMT1			LTOE			RFWT			RMWT			RBWT			RHIP			RKNE			RKNI			RSHN			RANK			RHEL			RMT5			RMT1			RTOE			Solving			Hips			Spine			Spine1			Spine2			Spine3			Neck			Head			HeadEnd			RightShoulder			RightArm			RightForeArm			RightForeArmRoll			RightHand			RightHandEnd			R_FingersEnd			RightHandThumb1			RightHandThumb2			LeftShoulder			LeftArm			LeftForeArm			LeftForeArmRoll			LeftHand			LeftHandEnd			L_FingersEnd			LeftHandThumb1			LeftHandThumb2			RightUpLeg			RightLeg			RightFoot			RightToeBase			RightToeBaseEnd			LeftUpLeg			LeftLeg			LeftFoot			LeftToeBase			LeftToeBaseEnd			
		X0	Y0	Z0	X1	Y1	Z1	X2	Y2	Z2	X3	Y3	Z3	X4	Y4	Z4	X5	Y5	Z5	X6	Y6	Z6	X7	Y7	Z7	X8	Y8	Z8	X9	Y9	Z9	X10	Y10	Z10	X11	Y11	Z11	X12	Y12	Z12	X13	Y13	Z13	X14	Y14	Z14	X15	Y15	Z15	X16	Y16	Z16	X17	Y17	Z17	X18	Y18	Z18	X19	Y19	Z19	X20	Y20	Z20	X21	Y21	Z21	X22	Y22	Z22	X23	Y23	Z23	X24	Y24	Z24	X25	Y25	Z25	X26	Y26	Z26	X27	Y27	Z27	X28	Y28	Z28	X29	Y29	Z29	X30	Y30	Z30	X31	Y31	Z31	X32	Y32	Z32	X33	Y33	Z33	X34	Y34	Z34	X35	Y35	Z35	X36	Y36	Z36	X37	Y37	Z37	X38	Y38	Z38	X39	Y39	Z39	X40	Y40	Z40	X41	Y41	Z41	X42	Y42	Z42	X43	Y43	Z43	X44	Y44	Z44	X45	Y45	Z45	X46	Y46	Z46	X47	Y47	Z47	X48	Y48	Z48	X49	Y49	Z49	X50	Y50	Z50	X51	Y51	Z51	X52	Y52	Z52	X53	Y53	Z53	X54	Y54	Z54	X55	Y55	Z55	X56	Y56	Z56	X57	Y57	Z57	X58	Y58	Z58	X59	Y59	Z59	X60	Y60	Z60	X61	Y61	Z61	X62	Y62	Z62	X63	Y63	Z63	X64	Y64	Z64	X65	Y65	Z65	X66	Y66	Z66	X67	Y67	Z67	X68	Y68	Z68	X69	Y69	Z69	X70	Y70	Z70	X71	Y71	Z71	X72	Y72	Z72	X73	Y73	Z73	X74	Y74	Z74	X75	Y75	Z75	X76	Y76	Z76	X77	Y77	Z77	X78	Y78	Z78	X79	Y79	Z79	X80	Y80	Z80	X81	Y81	Z81	X82	Y82	Z82	X83	Y83	Z83	X84	Y84	Z84	X85	Y85	Z85	X86	Y86	Z86	X87	Y87	Z87	X88	Y88	Z88	X89	Y89	Z89	X90	Y90	Z90	X91	Y91	Z91	X92	Y92	Z92	X93	Y93	Z93	X94	Y94	Z94	X95	Y95	Z95	X96	Y96	Z96	X97	Y97	Z97	X98	Y98	Z98	X99	Y99	Z99	X100	Y100	Z100	X101	Y101	Z101	X102	Y102	Z102	X103	Y103	Z103	X104	Y104	Z104	X105	Y105	Z105	X106	Y106	Z106	X107	Y107	Z107	X108	Y108	Z108	X109	Y109	Z109	X110	Y110	Z110	X111	Y111	Z111	X112	Y112	Z112	X113	Y113	Z113	X114	Y114	Z114	X115	Y115	Z115	X116	Y116	Z116	X117	Y117	Z117	X118	Y118	Z118	X119	Y119	Z119	X120	Y120	Z120	X121	Y121	Z121	X122	Y122	Z122	X123	Y123	Z123	X124	Y124	Z124	X125	Y125	Z125	X126	Y126	Z126	X127	Y127	Z127	X128	Y128	Z128	X129	Y129	Z129	
106	0.883333																																											-6.740774	971.261108	-14.678723																																																																												-37.019886	1843.306274	-14.879160	23.941500	1793.937622	76.120064	-103.114639	1788.229614	56.308933	64.773445	1735.175293	-41.146835	-91.332916	1717.199707	-73.945679	-7.379867	1553.837158	-100.033470	-0.906854	1375.497314	-130.028244	-10.970197	1484.079956	75.168419	-4.533936	1347.222778	117.165291	142.747177	1502.070435	-111.246490	126.185120	1506.480713	28.351873	237.648941	1356.501953	-33.383553	262.410919	1168.520020	-9.114551	236.906540	1221.763306	-68.125587	259.299103	1054.367920	51.274029	262.367126	926.586365	34.376095	208.378830	933.043030	99.052238	274.885986	871.858765	91.839081	255.323135	887.130920	118.028793	-169.469559	1501.357544	-109.724625	-156.454330	1508.789429	8.715355	-258.050507	1361.585815	-52.024582	-292.839386	1167.117310	-54.077389	-239.170349	1207.741577	-108.070442	-301.834167	1047.750977	-14.631967	-285.062836	919.128479	-14.105946	-260.473633	944.423706	60.740547	-305.444031	865.062561	41.653637	-295.672241	871.370422	80.866982	118.248497	1090.082886	88.928413	184.650330	981.760193	-20.665506	117.880455	1172.077148	-96.926865	182.942993	662.777344	-16.727287	175.141815	549.592346	-14.502533	113.470299	629.949646	49.165043	196.056915	332.997925	-94.074013	179.523102	124.411934	-134.938004	129.180267	68.209496	-191.305283	208.002045	79.337173	42.531906	126.851669	85.608368	51.711781	163.522125	83.662582	96.316132	-141.775574	1093.224854	88.864029	-202.313828	1012.041199	-62.260010	-117.082199	1157.845459	-113.270538	-136.646545	753.227661	65.596336	-185.765060	565.912048	-21.731670	-161.160767	650.506287	41.337040	-198.745605	413.111481	-94.109108	-179.176071	127.247948	-146.510773	-116.417801	75.764923	-194.618683	-204.426895	76.845596	27.134197	-124.418304	76.035568	42.900036	-178.034622	79.076202	83.189140				-6.482949	970.966370	-21.713175																																																																																																																																				
107	0.891667																																											-6.757568	971.259521	-14.705564																																																																												-37.024403	1843.312378	-14.952630	23.921022	1793.978516	76.039101	-103.215210	1788.193115	56.170563	64.763779	1735.205566	-41.166424	-91.226822	1717.268311	-73.720985	-7.394933	1553.831665	-100.135246	-0.916177	1375.522705	-130.105225	-11.175766	1483.914063	74.992645	-4.601121	1347.189697	117.048286	142.789505	1502.112549	-111.339508	126.208336	1506.486694	28.284657	237.650238	1356.503296	-33.444218	262.411804	1168.548950	-9.121594	236.882858	1221.755981	-68.178246	259.277466	1054.400024	51.280544	262.317261	926.615417	34.420063	208.317932	933.059021	99.073021	274.823853	871.919739	91.936981	255.234131	887.134705	118.081528	-169.493683	1501.344849	-109.815285	-156.869232	1508.420532	8.302608	-258.091064	1361.544434	-52.195091	-292.881958	1167.112671	-54.196232	-239.208542	1207.762695	-108.170860	-301.871429	1047.718872	-14.758150	-285.090820	919.107910	-14.217085	-260.517029	944.404602	60.669147	-305.475616	865.031311	41.544968	-295.768066	871.350464	80.770760	118.254547	1090.114380	88.906555	184.675354	981.836304	-20.656372	117.903519	1172.115234	-96.942162	182.982208	662.832397	-16.731302	175.201797	549.651123	-14.506410	113.477524	629.941223	49.096729	196.073654	333.043701	-94.086349	179.500092	124.437729	-134.937317	129.120453	68.187294	-191.279022	207.986694	79.324348	42.549881	126.811958	85.601746	51.683071	163.507599	83.675285	96.305267	-141.756439	1093.193481	88.791786	-201.798172	1012.233765	-61.130726	-117.070503	1157.879028	-113.334702	-136.620880	753.233765	65.547523	-185.762589	565.865112	-21.770044	-161.145294	650.474365	41.271400	-198.741165	413.096893	-94.107368	-179.204346	127.226105	-146.518204	-116.446915	75.764511	-194.621841	-204.456482	76.802544	27.119051	-124.441254	76.016388	42.895397	-178.049484	79.070259	83.162811				-6.437362	970.962219	-21.772772																																																																																																																																				
108	0.900000																																											-6.504817	971.315979	-14.349586																																																																												-37.042881	1843.327026	-15.037638	23.885599	1794.025146	75.983696	-103.206284	1788.171631	56.061924	64.703514	1735.238770	-41.196404	-91.238548	1717.304565	-73.748825	-7.441047	1553.840698	-100.224304	-0.906429	1375.567261	-130.172470	-11.248825	1483.933105	74.875534	-4.668627	1347.179688	116.932854	142.785461	1502.126953	-111.438789	126.174614	1506.488159	28.194145	237.620224	1356.515381	-33.492466	262.377472	1168.565063	-9.150576	236.843918	1221.749878	-68.201401	259.222870	1054.443359	51.285637	262.232056	926.633911	34.455330	208.230576	933.076538	99.116974	274.736145	871.971558	92.013138	255.126862	887.176086	118.126122	-169.477707	1501.468018	-109.930511	-156.991058	1508.377075	8.091734	-258.118835	1361.543091	-52.315090	-292.901031	1167.117676	-54.265575	-239.236450	1207.776245	-108.275993	-301.882507	1047.700195	-14.849709	-285.129639	919.124207	-14.277770	-260.523376	944.436279	60.623135	-305.519836	865.031616	41.462811	-295.689941	871.286438	80.633125	118.256798	1090.108032	88.867546	184.677002	981.916931	-20.678144	117.878860	1172.152954	-96.998451	182.987305	662.882385	-16.734232	175.225708	549.703857	-14.521123	113.535088	629.995483	49.115776	196.070786	333.088348	-94.085869	179.474533	124.457947	-134.933792	129.099426	68.207970	-191.269348	207.967758	79.381828	42.574226	126.766243	85.615265	51.711704	163.480270	83.693840	96.327080	-141.708755	1093.197876	88.753395	-201.724518	1012.241699	-60.981606	-117.096001	1157.934814	-113.424561	-136.554993	753.285767	65.535461	-185.756104	565.866272	-21.826719	-161.109467	650.513245	41.242878	-198.768890	413.141571	-94.134300	-179.270828	127.251480	-146.497421	-116.504204	75.785072	-194.604462	-204.470993	76.801254	27.124506	-124.484138	76.003227	42.887024	-178.070908	79.116646	83.229393				-6.433384	970.993591	-21.848427																																																																																																																																				
109	0.908333																																											-6.511887	971.329224	-14.387031																																																																												-37.045727	1843.348511	-15.124251	23.868217	1794.042358	75.908966	-103.227760	1788.187134	55.962746	64.670074	1735.268677	-41.187862	-91.199921	1717.322510	-73.864265	-7.441395	1553.833008	-100.325729	-0.907939	1375.520874	-130.211731	-11.276237	1483.964478	74.788269	-4.699783	1347.221802	116.857834	142.738602	1502.069702	-111.522362	126.157326	1506.484253	28.095579	237.593918	1356.501099	-33.550022	262.338898	1168.562256	-9.154024	236.802094	1221.741333	-68.229836	259.174561	1054.444336	51.314499	262.173004	926.647949	34.512024	208.188873	933.125671	99.169472	274.683197	872.002258	92.075089	255.092407	887.237305	118.210152	-169.514755	1501.379395	-110.017410	-156.993164	1508.410522	7.988219	-258.160095	1361.586792	-52.452686	-292.902954	1167.121338	-54.373989	-239.224304	1207.775146	-108.364815	-301.919373	1047.733154	-14.958428	-285.144928	919.150818	-14.362797	-260.571289	944.456238	60.554054	-305.532104	865.062561	41.380230	-295.696716	871.318176	80.563072	118.246307	1090.140137	88.829933	184.722260	981.931641	-20.678782	117.891762	1172.156128	-97.004066	183.011154	662.902588	-16.741976	175.249695	549.749695	-14.524575	113.593437	630.044739	49.128506	196.071457	333.101135	-94.084274	179.480118	124.438820	-134.956696	129.109665	68.216385	-191.251389	207.976044	79.404465	42.572037	126.778496	85.630470	51.706379	163.493179	83.724411	96.323433	-141.751877	1093.250488	88.706680	-201.735580	1012.253967	-61.083321	-117.049339	1157.900513	-113.436852	-136.552353	753.292969	65.454689	-185.717361	565.902771	-21.878262	-161.101288	650.526428	41.185432	-198.752045	413.142548	-94.166420	-179.223938	127.261055	-146.482101	-116.495163	75.777153	-194.608200	-204.457092	76.829514	27.124994	-124.511581	76.030190	42.891064	-178.121292	79.085228	83.161926				-6.434531	971.009399	-21.843613																																																																																																																																				
